<?xml version="1.0" encoding="utf-8"?>
<!-- Generator: Adobe Illustrator 18.1.0, SVG Export Plug-In . SVG Version: 6.00 Build 0)  -->
<!DOCTYPE svg PUBLIC "-//W3C//DTD SVG 1.1//EN" "http://www.w3.org/Graphics/SVG/1.1/DTD/svg11.dtd">
<svg version="1.1" id="Layer_1" xmlns="http://www.w3.org/2000/svg" xmlns:xlink="http://www.w3.org/1999/xlink" x="0px" y="0px"
	 viewBox="0 0 100 28" enable-background="new 0 0 100 28" xml:space="preserve">
<g>
	<path fill="#FFFFFF" d="M0.8,1.6h13.3c5,0,8,0.9,8,6.5c0,3.2-0.6,5.3-4,5.9v0.3c3.8,0.2,4.4,2.5,4.4,5.7c0,6.2-2.9,7.1-8.3,7.1H0.8
		V1.6z M7.6,11.8h4.9c2.4,0,2.9-0.4,2.9-2.4c0-1.5-0.2-2.1-2.1-2.2H7.6V11.8z M7.6,21.5h5.1c2.2,0,3.1-0.5,3.1-2.6
		c0-2.1-0.8-2.4-3-2.4H7.6V21.5z"/>
	<path fill="#FFFFFF" d="M65.9,11.6c7.5,0.5,9.4,1.5,9.4,7.3c0,4.2,0.2,8.3-11,8.3c-6.5,0-10.8-0.1-10.8-8.5H60
		c0,2.6,0.9,2.9,4.3,2.9c3.2,0,4.2-0.2,4.2-2.3c0-2.2-0.4-2.2-3.6-2.4l-1.5-0.1c-6.3-0.4-9.9-0.4-9.9-7.7s4.1-7.7,10.7-7.7
		c5.5,0,10.3,0.1,10.3,7.1v1h-6.5C68.1,7,67,7,64.3,7c-3.7,0-4,0.7-4,2.2c0,2,1,2.1,2.8,2.2L65.9,11.6z"/>
	<path fill="#FFFFFF" d="M90.1,11.6c7.5,0.5,9.4,1.5,9.4,7.3c0,4.2,0.2,8.3-11,8.3c-6.5,0-10.8-0.1-10.8-8.5h6.5
		c0,2.6,0.9,2.9,4.3,2.9c3.2,0,4.2-0.2,4.2-2.3c0-2.2-0.4-2.2-3.6-2.4l-1.5-0.1c-6.3-0.4-9.9-0.4-9.9-7.7s4.1-7.7,10.7-7.7
		c5.5,0,10.3,0.1,10.3,7.1v1h-6.5C92.3,7,91.2,7,88.5,7c-3.7,0-4,0.7-4,2.2c0,2,1,2.1,2.8,2.2L90.1,11.6z"/>
</g>
<g id="Capa_3">
	<path fill="#FFFFFF" d="M32.7,1.5c-6.8,3-9.9,10.9-7,17.7s10.9,9.9,17.7,7c6.8-3,9.9-10.9,7-17.7C47.4,1.7,39.5-1.4,32.7,1.5z
		 M50.3,11.6C49.7,11.8,49,12,49,12l-2.6-2.7l0.9-3.3l-1.1-1l0.2-0.4c1.2,1.1,2.3,2.5,3,4.2C49.9,9.8,50.2,10.7,50.3,11.6z M44,24.8
		l-2.7-3.9L38.5,19l-0.7-2.6l-3-0.4l-2,0.1l-3-2.5c0,0-0.5-2.5-0.3-2.6c0.1-0.1-0.9-1.8-0.9-1.8L26,11l-0.1-0.1
		c0.2-0.8,0.5-1.7,0.9-2.4c0.6-0.8,1.2-1.6,1.2-1.5c0,0.2,3.4-0.9,3.4-0.9l1.4-1.5l2.9-1.7l1-1.3l0.3-0.1c1.8-0.2,3.6,0.1,5.3,0.7
		l-0.9,0.7l-0.2,1L40.4,4l-0.7-2l-1.5-0.3L37,2.9l1.5,0.3l-0.2,1l-0.9,0.4l-1.1,0l-1.8,2.2l1.2,0.3l0.9-1.5l1.6-0.7l1.3,1.2
		l-1.5,2.2l-1.4,2.1L36.1,12l0.4,1l-2.1,0l-1,1.1l1,1.2l0.9-0.9l2.3,1.5l1.2-1.3l3.9,0.3l3.4,1l0.1,3c0,0-0.8,4.2-0.8,3.9
		c0-0.1-0.1,0.6-0.1,1.1C44.9,24.3,44.4,24.6,44,24.8z M38.6,13.2L38,14.1l-2-0.2L38.6,13.2z"/>
</g>
</svg>
