<?xml version="1.0" encoding="utf-8"?>
<!-- Generator: Adobe Illustrator 18.1.0, SVG Export Plug-In . SVG Version: 6.00 Build 0)  -->
<!DOCTYPE svg PUBLIC "-//W3C//DTD SVG 1.1//EN" "http://www.w3.org/Graphics/SVG/1.1/DTD/svg11.dtd">
<svg version="1.1" id="Layer_1" xmlns="http://www.w3.org/2000/svg" xmlns:xlink="http://www.w3.org/1999/xlink" x="0px" y="0px"
	 viewBox="0 0 28 28" enable-background="new 0 0 28 28" xml:space="preserve">
<g id="Capa_3">
	<path fill="#FFFFFF" d="M8.7,1.5c-6.8,3-9.9,10.9-7,17.7s10.9,9.9,17.7,7c6.8-3,9.9-10.9,7-17.7S15.5-1.4,8.7,1.5z M26.3,11.6
		C25.7,11.8,25,12,25,12l-2.6-2.7l0.9-3.3l-1.1-1l0.2-0.4c1.2,1.1,2.3,2.5,3,4.2C25.9,9.8,26.2,10.7,26.3,11.6z M20,24.8l-2.7-3.9
		L14.5,19l-0.7-2.6l-3-0.4l-2,0.1l-3-2.5c0,0-0.5-2.5-0.3-2.6c0.1-0.1-0.9-1.8-0.9-1.8L2,11l-0.1-0.1c0.2-0.8,0.5-1.7,0.9-2.4
		C3.3,7.7,3.9,6.9,3.9,7c0,0.2,3.4-0.9,3.4-0.9l1.4-1.5l2.9-1.7l1-1.3l0.3-0.1c1.8-0.2,3.6,0.1,5.3,0.7l-0.9,0.7l-0.2,1L16.4,4
		l-0.7-2l-1.5-0.3L13,2.9l1.5,0.3l-0.2,1l-0.9,0.4l-1.1,0l-1.8,2.2l1.2,0.3l0.9-1.5l1.6-0.7l1.3,1.2l-1.5,2.2l-1.4,2.1L12.1,12
		l0.4,1l-2.1,0l-1,1.1l1,1.2l0.9-0.9l2.3,1.5l1.2-1.3l3.9,0.3l3.4,1l0.1,3c0,0-0.8,4.2-0.8,3.9c0-0.1-0.1,0.6-0.1,1.1
		C20.9,24.3,20.4,24.6,20,24.8z M14.6,13.2L14,14.1l-2-0.2L14.6,13.2z"/>
</g>
</svg>
