<?xml version="1.0" encoding="UTF-8" standalone="no"?>
<svg viewBox="0 0 100 91" version="1.1" xmlns="http://www.w3.org/2000/svg" xmlns:xlink="http://www.w3.org/1999/xlink" xmlns:sketch="http://www.bohemiancoding.com/sketch/ns">
    <!-- Generator: Sketch 3.0.4 (8053) - http://www.bohemiancoding.com/sketch -->
    <title>Untitled 7</title>
    <desc>Created with Sketch.</desc>
    <defs></defs>
    <g id="Page-1" stroke="none" stroke-width="1" fill="none" fill-rule="evenodd" sketch:type="MSPage">
        <g id="icon_7451" sketch:type="MSLayerGroup" fill="#C0392B">
            <path d="M98.692,76.351 L58.485,4.793 C56.755,1.716 53.501,-0.188 49.97,-0.188 C46.443,-0.188 43.187,1.716 41.458,4.793 L1.252,76.351 C-0.446,79.375 -0.417,83.072 1.337,86.068 C3.088,89.06 6.295,90.899 9.765,90.899 L90.178,90.899 C93.646,90.899 96.852,89.06 98.604,86.068 C99.497,84.543 99.941,82.84 99.941,81.135 C99.941,79.484 99.524,77.837 98.692,76.351 L98.692,76.351 Z M44.045,55.222 L44.045,30.75 L44.045,29.387 C44.13,25.379 46.433,22.735 50.015,22.735 C53.595,22.735 55.983,25.464 55.983,29.387 L55.983,30.75 L55.983,55.222 L55.983,56.503 C55.898,60.595 53.595,63.152 50.015,63.152 C46.433,63.152 44.045,60.509 44.045,56.503 L44.045,55.222 L44.045,55.222 Z M50.01,80.744 C46.235,80.744 43.166,77.676 43.166,73.899 C43.166,70.122 46.234,67.134 50.01,67.134 C53.786,67.134 56.774,70.122 56.774,73.899 C56.774,77.676 53.786,80.744 50.01,80.744 L50.01,80.744 Z" id="Shape" sketch:type="MSShapeGroup"></path>
        </g>
    </g>
</svg>