<?xml version="1.0" encoding="UTF-8" standalone="no"?>
<svg viewBox="0 0 46 46" version="1.1" xmlns="http://www.w3.org/2000/svg" xmlns:xlink="http://www.w3.org/1999/xlink" xmlns:sketch="http://www.bohemiancoding.com/sketch/ns">
    <!-- Generator: Sketch 3.0.4 (8053) - http://www.bohemiancoding.com/sketch -->
    <title>clock 2</title>
    <desc>Created with Sketch.</desc>
    <defs></defs>
    <g id="Page-1" stroke="none" stroke-width="1" fill="none" fill-rule="evenodd" sketch:type="MSPage">
        <g id="icon_26536" sketch:type="MSLayerGroup">
            <path d="M30.84339,14.209186 L22.26539,22.785186 L17.06239,17.583186 C16.20839,16.729186 14.82539,16.729186 13.97039,17.583186 C13.11639,18.437186 13.11639,19.821186 13.97039,20.676186 L20.71939,27.424186 C21.14639,27.852186 21.70539,28.066186 22.26539,28.066186 C22.82539,28.066186 23.38439,27.852186 23.81239,27.424186 L33.93639,17.301186 C34.79039,16.447186 34.79039,15.063186 33.93639,14.208186 C33.08239,13.354186 31.69739,13.354186 30.84339,14.209186 L30.84339,14.209186 Z" id="path8" fill="#000000" sketch:type="MSShapeGroup"></path>
            <path d="M0.40339,23.237186 C0.40339,35.901186 10.70539,46.204186 23.36939,46.204186 C36.03139,46.204186 46.33639,35.901186 46.33639,23.237186 C46.33639,10.574186 36.03139,0.271186 23.36939,0.271186 C10.70539,0.271186 0.40339,10.574186 0.40339,23.237186 Z M6.96539,23.237186 C6.96539,14.191186 14.32239,6.833186 23.36939,6.833186 C32.41439,6.833186 39.77339,14.191186 39.77339,23.237186 C39.77339,32.284186 32.41439,39.642186 23.36939,39.642186 C14.32239,39.642186 6.96539,32.284186 6.96539,23.237186 Z" id="path10" fill="#F6A623" sketch:type="MSShapeGroup"></path>
        </g>
    </g>
</svg>