<?xml version="1.0" encoding="UTF-8" standalone="no"?>
<svg viewBox="0 0 96 60" version="1.1" xmlns="http://www.w3.org/2000/svg" xmlns:xlink="http://www.w3.org/1999/xlink" xmlns:sketch="http://www.bohemiancoding.com/sketch/ns">
    <!-- Generator: Sketch 3.1 (8751) - http://www.bohemiancoding.com/sketch -->
    <title>icon_38708</title>
    <desc>Created with Sketch.</desc>
    <defs></defs>
    <g id="Page-1" stroke="none" stroke-width="1" fill="none" fill-rule="evenodd" sketch:type="MSPage">
        <g id="icon_38708" sketch:type="MSLayerGroup" fill="#4990E2">
            <path d="M59.877,0.481 C50.274,0.481 41.861,5.541 37.148,13.141 C35.415,12.631 33.575,12.356 31.675,12.356 C23.405,12.356 16.353,17.55 13.603,24.857 C6.05,26.921 0.5,33.833 0.5,42.042 C0.5,51.858 8.473,59.853 18.311,59.853 L77.682,59.853 C87.522,59.853 95.497,51.878 95.501,42.042 C95.5,35.46 91.917,29.693 86.584,26.615 C86.275,12.128 74.433,0.481 59.877,0.481 Z M48.2878619,52.6395 C48.2878617,52.6394998 35.7208176,37.4090467 35.7208176,37.4090471 L42.8954993,37.4090471 C42.8954993,37.4090471 42.8954992,18.9315 42.8954992,18.9315 L53.6831169,18.9315 C53.6831161,18.9315 53.6831166,37.4090471 53.6831166,37.4090471 L60.8549062,37.4090471 C60.8549061,37.4090467 48.2878621,52.6395002 48.2878619,52.6395 Z" id="Shape" sketch:type="MSShapeGroup"></path>
        </g>
    </g>
</svg>