<?xml version="1.0" encoding="UTF-8" standalone="no"?>
<svg viewBox="0 0 96 60" version="1.1" xmlns="http://www.w3.org/2000/svg" xmlns:xlink="http://www.w3.org/1999/xlink" xmlns:sketch="http://www.bohemiancoding.com/sketch/ns">
    <!-- Generator: Sketch 3.1 (8751) - http://www.bohemiancoding.com/sketch -->
    <title>icon_38708</title>
    <desc>Created with Sketch.</desc>
    <defs></defs>
    <g id="Page-1" stroke="none" stroke-width="1" fill="none" fill-rule="evenodd" sketch:type="MSPage">
        <g id="icon_38708" sketch:type="MSLayerGroup" fill="#000000">
            <path d="M86.584,26.615 C86.275,12.128 74.433,0.481 59.877,0.481 C50.274,0.481 41.861,5.541 37.148,13.141 C35.415,12.631 33.575,12.356 31.675,12.356 C23.405,12.356 16.353,17.55 13.603,24.857 C6.05,26.921 0.5,33.833 0.5,42.042 C0.5,51.858 8.473,59.853 18.311,59.853 L77.682,59.853 C87.522,59.853 95.497,51.878 95.501,42.042 C95.5,35.46 91.917,29.693 86.584,26.615 L86.584,26.615 Z M60.8552073,39.9703644 L49.031469,52.2034996 C48.7536111,52.4828355 48.3767295,52.6395 48.0013258,52.6395 C47.6111424,52.6395 47.2505184,52.4843134 46.9726605,52.2034996 L35.1474443,39.9703644 C34.8666305,39.6910286 34.7262236,39.2978893 34.7262236,38.9106618 C34.7262236,38.7200041 34.7572609,38.5204785 34.8311593,38.3298207 C35.0513764,37.7667152 35.5834446,37.4090471 36.1790654,37.4090471 L42.4899858,37.4090471 L42.4899858,23.9625007 L42.5018095,23.9625007 L42.5018095,20.5853454 C42.5018095,19.6734396 43.2407931,18.9315 44.152699,18.9315 L51.8647323,18.9315 C52.7766381,18.9315 53.5156217,19.6734396 53.5156217,20.5853454 L53.5156217,23.9625007 L53.5156217,24.7945962 L53.5156217,37.4090471 L59.8235861,37.4090471 C60.416251,37.4090471 60.9512752,37.7667152 61.1670584,38.3298207 C61.3857976,38.8929262 61.2646043,39.5506217 60.8552073,39.9703644 L60.8552073,39.9703644 Z" id="Shape" sketch:type="MSShapeGroup"></path>
        </g>
    </g>
</svg>