<?xml version="1.0" encoding="UTF-8" standalone="no"?>
<svg viewBox="0 0 71 70" version="1.1" xmlns="http://www.w3.org/2000/svg" xmlns:xlink="http://www.w3.org/1999/xlink" xmlns:sketch="http://www.bohemiancoding.com/sketch/ns">
    <!-- Generator: Sketch 3.1 (8751) - http://www.bohemiancoding.com/sketch -->
    <title>infoBluex</title>
    <desc>Created with Sketch.</desc>
    <defs></defs>
    <g id="Page-1" stroke="none" stroke-width="1" fill="none" fill-rule="evenodd" sketch:type="MSPage">
        <g id="infoBluex" sketch:type="MSLayerGroup" fill="#4990E2">
            <path d="M35.5,0 C16.2,0 0.5,15.7 0.5,35 C0.5,54.3 16.2,70 35.5,70 C54.8,70 70.5,54.3 70.5,35 C70.5,15.7 54.8,0 35.5,0 L35.5,0 Z M40.4,57.8 L30.6,57.8 L30.6,26.1 L40.5,26.1 L40.4,57.8 L40.4,57.8 Z M35.4,22.2 C32.3,22.2 30.2,20 30.3,17.3 C30.2,14.4 32.3,12.3 35.5,12.3 C38.7,12.3 40.7,14.5 40.8,17.3 C40.8,19.9 38.7,22.2 35.4,22.2 L35.4,22.2 Z" id="Information" sketch:type="MSShapeGroup"></path>
        </g>
    </g>
</svg>