<?xml version="1.0" encoding="UTF-8" standalone="no"?>
<svg viewBox="0 0 80 80" version="1.1" xmlns="http://www.w3.org/2000/svg" xmlns:xlink="http://www.w3.org/1999/xlink" xmlns:sketch="http://www.bohemiancoding.com/sketch/ns">
    <!-- Generator: Sketch 3.1 (8751) - http://www.bohemiancoding.com/sketch -->
    <title>Slice 2</title>
    <desc>Created with Sketch.</desc>
    <defs></defs>
    <g id="Page-1" stroke="none" stroke-width="1" fill="none" fill-rule="evenodd" sketch:type="MSPage">
        <g id="icon_8361" sketch:type="MSLayerGroup" transform="translate(-10.000000, -10.000000)" fill="#000000">
            <g id="Your_Icon" transform="translate(0.000000, 6.000000)" sketch:type="MSShapeGroup">
                <path d="M50,13.969 C42.762,13.969 36.873,19.858 36.873,27.095 C36.873,30.956 38.572,34.607 41.531,37.114 C41.627,37.194 41.719,37.278 41.806,37.364 C45.038,40.231 47.029,44.229 47.413,48.477 L52.585,48.477 C52.97,44.227 54.96,40.23 58.192,37.364 C58.28,37.278 58.372,37.194 58.467,37.114 C61.426,34.607 63.125,30.957 63.125,27.095 C63.127,19.858 57.238,13.969 50,13.969 L50,13.969 Z" id="Shape"></path>
                <path d="M94,0 L6,0 C2.687,0 0,2.687 0,6 L0,63 C0,66.313 2.687,69 6,69 L20,69 L20,94 L45,69 L94,69 C97.313,69 100,66.313 100,63 L100,6 C100,2.687 97.313,0 94,0 L94,0 Z M61.68,40.907 L61.694,40.907 C58.762,43.389 57.212,47.134 57.528,50.96 L57.553,50.96 L57.553,53.447 L57.504,53.447 C57.533,53.726 57.553,54.007 57.553,54.287 C57.553,58.459 52.412,61 50,61 C47.588,61 42.447,58.459 42.447,54.287 C42.447,54.007 42.468,53.726 42.498,53.447 L42.473,53.447 L42.473,50.96 C42.789,47.134 41.239,43.389 38.307,40.907 L38.321,40.907 C34.401,37.587 31.905,32.636 31.905,27.096 C31.904,17.103 40.006,9 50,9 C59.994,9 68.096,17.103 68.096,27.096 C68.096,32.636 65.6,37.587 61.68,40.907 L61.68,40.907 Z" id="Shape"></path>
            </g>
        </g>
    </g>
</svg>